<svg width="900" height="90" viewBox="0 0 900 90" xmlns="http://www.w3.org/2000/svg">
    <defs>
      <linearGradient id="waveGradient" x1="0" y1="0" x2="900" y2="0" gradientUnits="userSpaceOnUse">
        <stop offset="0%" stop-color="#ff7a66"/>
        <stop offset="12%" stop-color="#ffd166"/>
        <stop offset="28%" stop-color="#9dff57"/>
        <stop offset="42%" stop-color="#4dff9d"/>
        <stop offset="56%" stop-color="#5ee7ff"/>
        <stop offset="70%" stop-color="#628bff"/>
        <stop offset="84%" stop-color="#c45cff"/>
        <stop offset="100%" stop-color="#ff6aa9"/>
      </linearGradient>

      <filter id="softGlow" x="-5%" y="-80%" width="110%" height="260%">
        <feGaussianBlur stdDeviation="2.4" result="blur"/>
        <feMerge>
          <feMergeNode in="blur"/>
          <feMergeNode in="SourceGraphic"/>
        </feMerge>
      </filter>
    </defs>

    <rect width="900" height="90" fill="#1f1c1f"/>

    <path
      d="M8 58
         C24 61, 42 62, 58 58
         C68 56, 75 40, 86 40
         C98 40, 103 57, 118 57
         C140 57, 150 53, 170 53
         C190 53, 210 59, 230 58
         C252 57, 274 54, 294 52
         C315 50, 326 48, 340 43
         C351 39, 360 28, 370 42
         C379 53, 389 53, 400 40
         C410 28, 419 48, 432 48
         C450 48, 461 43, 478 44
         C495 45, 505 52, 520 49
         C535 46, 548 39, 562 44
         C574 49, 583 52, 596 45
         C607 39, 617 49, 630 47
         C642 45, 652 42, 665 46
         C680 50, 690 43, 704 46
         C717 49, 728 44, 742 47
         C757 50, 768 43, 782 48
         C796 53, 811 51, 825 49
         C842 47, 855 48, 872 56
         C882 60, 890 60, 892 58"
      fill="none"
      stroke="url(#waveGradient)"
      stroke-width="5"
      stroke-linecap="round"
      stroke-linejoin="round"
      filter="url(#softGlow)"
    >
      <animate
        attributeName="d"
        dur="2.8s"
        repeatCount="indefinite"
        values="
          M8 58 C24 61, 42 62, 58 58 C68 56, 75 40, 86 40 C98 40, 103 57, 118 57 C140 57, 150 53, 170 53 C190 53,
  210 59, 230 58 C252 57, 274 54, 294 52 C315 50, 326 48, 340 43 C351 39, 360 28, 370 42 C379 53, 389 53, 400 40
  C410 28, 419 48, 432 48 C450 48, 461 43, 478 44 C495 45, 505 52, 520 49 C535 46, 548 39, 562 44 C574 49, 583 52,
  596 45 C607 39, 617 49, 630 47 C642 45, 652 42, 665 46 C680 50, 690 43, 704 46 C717 49, 728 44, 742 47 C757 50,
  768 43, 782 48 C796 53, 811 51, 825 49 C842 47, 855 48, 872 56 C882 60, 890 60, 892 58;

          M8 57 C26 60, 42 59, 58 56 C69 54, 76 45, 86 43 C97 41, 104 54, 119 55 C139 56, 152 51, 171 52 C191 53,
  211 57, 232 56 C254 55, 276 52, 295 50 C314 48, 327 43, 340 39 C352 35, 359 34, 370 44 C380 53, 389 50, 400 38
  C411 27, 420 45, 433 47 C450 49, 462 41, 478 42 C496 43, 506 50, 520 47 C535 44, 548 36, 562 43 C574 50, 584 50,
  596 43 C608 36, 617 47, 631 46 C643 45, 652 40, 666 44 C681 49, 691 41, 705 45 C718 49, 729 42, 743 46 C758 50,
  768 42, 783 47 C797 52, 812 49, 826 47 C843 45, 856 47, 872 54 C883 59, 890 59, 892 57;

          M8 58 C24 61, 42 62, 58 58 C68 56, 75 40, 86 40 C98 40, 103 57, 118 57 C140 57, 150 53, 170 53 C190 53,
  210 59, 230 58 C252 57, 274 54, 294 52 C315 50, 326 48, 340 43 C351 39, 360 28, 370 42 C379 53, 389 53, 400 40
  C410 28, 419 48, 432 48 C450 48, 461 43, 478 44 C495 45, 505 52, 520 49 C535 46, 548 39, 562 44 C574 49, 583 52,
  596 45 C607 39, 617 49, 630 47 C642 45, 652 42, 665 46 C680 50, 690 43, 704 46 C717 49, 728 44, 742 47 C757 50,
  768 43, 782 48 C796 53, 811 51, 825 49 C842 47, 855 48, 872 56 C882 60, 890 60, 892 58"
      />
    </path>
  </svg>
