<svg width="900" height="260" viewBox="0 0 900 260" xmlns="http://www.w3.org/2000/svg">
    <defs>
      <linearGradient id="waveGradient" x1="0" y1="0" x2="900" y2="0" gradientUnits="userSpaceOnUse">
        <stop offset="0%" stop-color="#ff003c"/>
        <stop offset="18%" stop-color="#ff2a00"/>
        <stop offset="36%" stop-color="#ffb300"/>
        <stop offset="54%" stop-color="#00ff85"/>
        <stop offset="72%" stop-color="#00c8ff"/>
        <stop offset="88%" stop-color="#7a00ff"/>
        <stop offset="100%" stop-color="#d000ff"/>
      </linearGradient>

      <filter id="glow" x="-30%" y="-80%" width="160%" height="260%">
        <feGaussianBlur stdDeviation="6" result="blur"/>
        <feColorMatrix
          in="blur"
          type="matrix"
          values="
            1 0 0 0 0
            0 0.6 0 0 0
            0 0 1 0 0
            0 0 0 1 0"
          result="glow"/>
        <feMerge>
          <feMergeNode in="glow"/>
          <feMergeNode in="SourceGraphic"/>
        </feMerge>
      </filter>

      <radialGradient id="bgGlow" cx="50%" cy="50%" r="70%">
        <stop offset="0%" stop-color="#331155"/>
        <stop offset="45%" stop-color="#12071f"/>
        <stop offset="100%" stop-color="#050509"/>
      </radialGradient>
    </defs>

    <rect width="900" height="260" fill="url(#bgGlow)"/>

    <g opacity="0.18">
      <path d="M0 130 H900" stroke="#ffffff" stroke-width="1"/>
      <path d="M0 80 H900" stroke="#ffffff" stroke-width="1"/>
      <path d="M0 180 H900" stroke="#ffffff" stroke-width="1"/>
    </g>

    <g filter="url(#glow)" fill="none" stroke-linecap="round">
      <path
        stroke="url(#waveGradient)"
        stroke-width="7"
        opacity="1"
        d="M0 130 C40 80, 80 80, 120 130 S200 180, 240 130 S320 80, 360 130 S440 180, 480 130 S560 80, 600 130 S680
  180, 720 130 S800 80, 840 130 S880 180, 900 130">
        <animate
          attributeName="d"
          dur="2.2s"
          repeatCount="indefinite"
          values="
            M0 130 C40 80, 80 80, 120 130 S200 180, 240 130 S320 80, 360 130 S440 180, 480 130 S560 80, 600 130
  S680 180, 720 130 S800 80, 840 130 S880 180, 900 130;
            M0 130 C40 180, 80 180, 120 130 S200 70, 240 130 S320 190, 360 130 S440 65, 480 130 S560 185, 600 130
  S680 75, 720 130 S800 190, 840 130 S880 80, 900 130;
            M0 130 C40 95, 80 70, 120 130 S200 205, 240 130 S320 60, 360 130 S440 200, 480 130 S560 75, 600 130
  S680 190, 720 130 S800 65, 840 130 S880 185, 900 130;
            M0 130 C40 80, 80 80, 120 130 S200 180, 240 130 S320 80, 360 130 S440 180, 480 130 S560 80, 600 130
  S680 180, 720 130 S800 80, 840 130 S880 180, 900 130"
        />
      </path>

      <path
        stroke="url(#waveGradient)"
        stroke-width="3"
        opacity="0.65"
        d="M0 130 C60 100, 90 100, 150 130 S270 160, 330 130 S450 100, 510 130 S630 160, 690 130 S810 100, 900
  130">
        <animate
          attributeName="d"
          dur="1.45s"
          repeatCount="indefinite"
          values="
            M0 130 C60 100, 90 100, 150 130 S270 160, 330 130 S450 100, 510 130 S630 160, 690 130 S810 100, 900
  130;
            M0 130 C60 165, 90 165, 150 130 S270 90, 330 130 S450 170, 510 130 S630 85, 690 130 S810 165, 900 130;
            M0 130 C60 100, 90 100, 150 130 S270 160, 330 130 S450 100, 510 130 S630 160, 690 130 S810 100, 900
  130"
        />
      </path>

      <path
        stroke="#ffffff"
        stroke-width="1.5"
        opacity="0.55"
        d="M0 130 C40 110, 80 110, 120 130 S200 150, 240 130 S320 110, 360 130 S440 150, 480 130 S560 110, 600 130
  S680 150, 720 130 S800 110, 840 130 S880 150, 900 130">
        <animate
          attributeName="opacity"
          dur="1.1s"
          repeatCount="indefinite"
          values="0.25;0.75;0.25"
        />
      </path>
    </g>
  </svg>
